{"title":"Nubiles - Melanie Jane - Hardcore","uid":7926741,"size":625501767,"categoryP":"porn","categoryS":"movie_clips","magnet":"?xt=urn:btih:23e8cdfce763c62495187ca6cc15f373e81d2b2e&amp;dn=Nubiles+-+Melanie+Jane+-+Hardcore&amp;tr=udp%3A%2F%2Ftracker.openbittorrent.com%3A80&amp;tr=udp%3A%2F%2Fopen.demonii.com%3A1337&amp;tr=udp%3A%2F%2Ftracker.coppersurfer.tk%3A6969&amp;tr=udp%3A%2F%2Fexodus.desync.com%3A6969","seeders":1,"leechers":0,"uploader":"athklym","files":-1,"time":1355596235,"description":" &lt;a href=&quot;http://bayimg.com/HAHGPAAED&quot; rel=&quot;nofollow&quot; target=&quot;_NEW&quot;&gt;http://bayimg.com/HAHGPAAED&lt;/a&gt;\nNubiles_Melanie_Jane.wmv\nFormat                                   : Windows Media\nFile size                                : 597 MiB\nDuration                                 : 22mn 58s\nOverall bit rate mode                    : Constant\nOverall bit rate                         : 3 631 Kbps\nMaximum Overall bit rate                 : 3 659 Kbps\nEncoded date                             : UTC 2010-01-05 23:31:38.159\nWriting application                      : TMPGEnc 4.0 XPress Version. 4.2.3.193\n\nVideo\nID                                       : 2\nFormat                                   : VC-1\nFormat profile                           : MP@HL\nCodec ID                                 : WMV3\nCodec ID/Info                            : Windows Media Video 9\nCodec ID/Hint                            : WMV3\nDescription of the codec                 : Windows Media Video 9 - Professional\nDuration                                 : 22mn 58s\nBit rate mode                            : Constant\nBit rate                                 : 3 500 Kbps\nWidth                                    : 1 280 pixels\nHeight                                   : 720 pixels\nDisplay aspect ratio                     : 16:9\nFrame rate                               : 29.970 fps\nBit depth                                : 8 bits\nScan type                                : Progressive\nCompression mode                         : Lossy\nBits/(Pixel*Frame)                       : 0.127\nStream size                              : 575 MiB (96%)\nLanguage                                 : English (US)\n\nAudio\nID                                       : 1\nFormat                                   : WMA\nFormat version                           : Version 2\nCodec ID                                 : 161\nCodec ID/Info                            : Windows Media Audio\nDescription of the codec                 : Windows Media Audio 9.2 - 128 kbps, 48 kHz, stereo 1-pass CBR\nDuration                                 : 22mn 58s\nBit rate mode                            : Constant\nBit rate                                 : 128 Kbps\nChannel(s)                               : 2 channels\nSampling rate                            : 48.0 KHz\nBit depth                                : 16 bits\nStream size                              : 21.0 MiB (4%)\nLanguage                                 : English (US)\n\n","torrent":{"xt":"urn:btih:23e8cdfce763c62495187ca6cc15f373e81d2b2e","amp;dn":"Nubiles+-+Melanie+Jane+-+Hardcore","amp;tr":["udp%3A%2F%2Ftracker.openbittorrent.com%3A80","udp%3A%2F%2Fopen.demonii.com%3A1337","udp%3A%2F%2Ftracker.coppersurfer.tk%3A6969","udp%3A%2F%2Fexodus.desync.com%3A6969"],"infoHash":"23e8cdfce763c62495187ca6cc15f373e81d2b2e","infoHashBuffer":{"type":"Buffer","data":[35,232,205,252,231,99,198,36,149,24,124,166,204,21,243,115,232,29,43,46]},"announce":[],"urlList":[]}}